<svg width="21" height="20" viewBox="0 0 21 20" fill="none" xmlns="http://www.w3.org/2000/svg">
<g id="Icon pack Variants">
<path id="Union" fill-rule="evenodd" clip-rule="evenodd" d="M10.4993 1.66675C9.57887 1.66675 8.83268 2.41294 8.83268 3.33341V5.83342C8.83268 6.29365 9.20578 6.66675 9.66602 6.66675C10.1263 6.66675 10.4993 6.29365 10.4993 5.83342V3.33341H17.166V10.0001H14.666C14.2058 10.0001 13.8327 10.3732 13.8327 10.8334C13.8327 11.2937 14.2058 11.6667 14.666 11.6667H17.166C18.0865 11.6667 18.8327 10.9206 18.8327 10.0001V3.33341C18.8327 2.41294 18.0865 1.66675 17.166 1.66675H10.4993ZM3.83268 16.6667V10.0001H10.4993V16.6667H3.83268ZM2.16602 9.16675C2.16602 8.70651 2.53911 8.33342 2.99935 8.33342H11.3327C11.7929 8.33342 12.166 8.70651 12.166 9.16675V17.5001C12.166 17.9603 11.7929 18.3334 11.3327 18.3334H2.99935C2.53911 18.3334 2.16602 17.9603 2.16602 17.5001V9.16675Z" fill="#5271FF"/>
</g>
</svg>
