<svg width="26" height="26" viewBox="0 0 26 26" fill="none" xmlns="http://www.w3.org/2000/svg">
<rect x="0.5" y="0.552246" width="25" height="25" rx="12.5" fill="#EDF0FF"/>
<path d="M9.23117 17.3867C8.87534 17.3867 8.54284 17.2642 8.30367 17.0367C8.00034 16.7509 7.8545 16.3192 7.907 15.8526L8.12284 13.9626C8.16367 13.6067 8.3795 13.1342 8.63034 12.8776L13.4195 7.8084C14.6153 6.54257 15.8637 6.50757 17.1295 7.7034C18.3953 8.89924 18.4303 10.1476 17.2345 11.4134L12.4453 16.4826C12.2003 16.7451 11.7453 16.9901 11.3895 17.0484L9.51117 17.3692C9.412 17.3751 9.3245 17.3867 9.23117 17.3867ZM15.292 7.69757C14.8428 7.69757 14.452 7.97757 14.0553 8.39757L9.26617 13.4726C9.1495 13.5951 9.01534 13.8867 8.992 14.0559L8.77617 15.9459C8.75284 16.1384 8.7995 16.2959 8.9045 16.3951C9.0095 16.4942 9.167 16.5292 9.3595 16.5001L11.2378 16.1792C11.407 16.1501 11.687 15.9984 11.8037 15.8759L16.5928 10.8067C17.3162 10.0367 17.5787 9.32507 16.5228 8.3334C16.0562 7.88424 15.6537 7.69757 15.292 7.69757Z" fill="#5271FF"/>
<path d="M16.1156 12.3876C16.1039 12.3876 16.0864 12.3876 16.0747 12.3876C14.2547 12.2067 12.7906 10.8242 12.5106 9.01591C12.4756 8.77674 12.6389 8.55507 12.8781 8.51424C13.1172 8.47924 13.3389 8.64258 13.3797 8.88174C13.6014 10.2934 14.7447 11.3784 16.1681 11.5184C16.4072 11.5417 16.5822 11.7576 16.5589 11.9967C16.5297 12.2184 16.3372 12.3876 16.1156 12.3876Z" fill="#5271FF"/>
<path d="M18.25 19.2708H7.75C7.51083 19.2708 7.3125 19.0724 7.3125 18.8333C7.3125 18.5941 7.51083 18.3958 7.75 18.3958H18.25C18.4892 18.3958 18.6875 18.5941 18.6875 18.8333C18.6875 19.0724 18.4892 19.2708 18.25 19.2708Z" fill="#5271FF"/>
</svg>
